# xmcd
#
# Track frame offsets: 
#        150
#        15332
#        32376
#        53094
#        69104
#        83642
#        99401
#        115823
#        132976
#        150797
#
# Disc length: 2224 seconds
#
# Revision: 0
# Processed by: cddbd v1.5.2PL0 Copyright (c) Steve Scherf et al.
# Submitted via: ExactAudioCopy v0.95b4
#
DISCID=6008ae0a
DTITLE=High Noon - Rockin' to the Radio
DYEAR=1900
DGENRE=Corporate Country
TTITLE0=Rockin' to the Radio
TTITLE1=She Loves Me
TTITLE2=Lonely Boy
TTITLE3=Time for Me to Fly
TTITLE4=Losin' My Louisiana Love
TTITLE5=Innocent Years
TTITLE6=Blue Sunrise
TTITLE7=#1 in Your Eyes
TTITLE8=One Girl Town
TTITLE9=Railroad Blues
EXTD=
EXTT0=
EXTT1=
EXTT2=
EXTT3=
EXTT4=
EXTT5=
EXTT6=
EXTT7=
EXTT8=
EXTT9=
PLAYORDER=
